<mxfile host="Electron" agent="Mozilla/5.0 (Windows NT 10.0; Win64; x64) AppleWebKit/537.36 (KHTML, like Gecko) draw.io/24.7.8 Chrome/128.0.6613.36 Electron/32.0.1 Safari/537.36" version="24.7.8">
  <diagram id="MQPGRjlDrXxC_ctuYvKD" name="Seite-2">
    <mxGraphModel dx="161" dy="570" grid="1" gridSize="10" guides="1" tooltips="1" connect="1" arrows="1" fold="1" page="1" pageScale="1" pageWidth="827" pageHeight="1169" math="0" shadow="0">
      <root>
        <mxCell id="0" />
        <mxCell id="1" parent="0" />
        <mxCell id="ZWoC2uR3TbvdJAY8fxQg-15" value="" style="rounded=1;whiteSpace=wrap;html=1;strokeColor=none;fillColor=#BAC8D3;fontSize=24;fontColor=#23445D;align=center;opacity=60;" vertex="1" parent="1">
          <mxGeometry x="860" y="210" width="116" height="50" as="geometry" />
        </mxCell>
        <mxCell id="ZWoC2uR3TbvdJAY8fxQg-14" value="" style="rounded=1;whiteSpace=wrap;html=1;strokeColor=none;fillColor=#BAC8D3;fontSize=24;fontColor=#23445D;align=center;opacity=60;" vertex="1" parent="1">
          <mxGeometry x="861" y="103" width="115" height="50" as="geometry" />
        </mxCell>
        <mxCell id="YL_HhuLeIMzK-YCLCgM7-1" value="" style="rounded=1;whiteSpace=wrap;html=1;strokeColor=none;fillColor=#BAC8D3;fontSize=24;fontColor=#23445D;align=center;opacity=60;" parent="1" vertex="1">
          <mxGeometry x="990" y="150" width="500" height="330" as="geometry" />
        </mxCell>
        <mxCell id="Ga-NZqFG59m0xIWUAN_0-2" value="" style="image;sketch=0;aspect=fixed;html=1;points=[];align=center;fontSize=12;image=img/lib/mscae/Docker.svg;" parent="1" vertex="1">
          <mxGeometry x="1201" y="60" width="80" height="65.6" as="geometry" />
        </mxCell>
        <mxCell id="Ga-NZqFG59m0xIWUAN_0-3" value="streamlit" style="rounded=1;whiteSpace=wrap;html=1;strokeColor=none;fillColor=#BAC8D3;fontSize=24;fontColor=#23445D;align=center;opacity=60;" parent="1" vertex="1">
          <mxGeometry x="1354.5" y="210" width="115.5" height="50" as="geometry" />
        </mxCell>
        <mxCell id="5cDeSdExlu0vSiFQY6Vj-1" value="" style="edgeStyle=elbowEdgeStyle;elbow=vertical;strokeWidth=4;endArrow=block;endFill=1;fontStyle=1;strokeColor=#23445D;exitX=0.5;exitY=0.998;exitDx=0;exitDy=0;exitPerimeter=0;entryX=0.5;entryY=0;entryDx=0;entryDy=0;" parent="1" source="Ga-NZqFG59m0xIWUAN_0-2" target="Ga-NZqFG59m0xIWUAN_0-3" edge="1">
          <mxGeometry x="22" y="165.5" width="100" height="100" as="geometry">
            <mxPoint x="1195.34" y="125.928" as="sourcePoint" />
            <mxPoint x="1615.18" y="361.9" as="targetPoint" />
            <Array as="points">
              <mxPoint x="1314.5" y="170" />
            </Array>
          </mxGeometry>
        </mxCell>
        <mxCell id="5cDeSdExlu0vSiFQY6Vj-2" value="" style="edgeStyle=elbowEdgeStyle;elbow=vertical;strokeWidth=4;endArrow=block;endFill=1;fontStyle=1;strokeColor=#23445D;exitX=0.503;exitY=0.995;exitDx=0;exitDy=0;exitPerimeter=0;entryX=0.5;entryY=0;entryDx=0;entryDy=0;" parent="1" source="Ga-NZqFG59m0xIWUAN_0-2" target="KrwQzmzQ28-HR98bMBzi-10" edge="1">
          <mxGeometry x="22" y="165.5" width="100" height="100" as="geometry">
            <mxPoint x="1241" y="149.99759999999998" as="sourcePoint" />
            <mxPoint x="996.96" y="212.34000000000003" as="targetPoint" />
            <Array as="points">
              <mxPoint x="1120" y="170" />
            </Array>
          </mxGeometry>
        </mxCell>
        <mxCell id="5cDeSdExlu0vSiFQY6Vj-3" value="" style="edgeStyle=elbowEdgeStyle;elbow=vertical;strokeWidth=4;endArrow=block;endFill=1;fontStyle=1;strokeColor=#23445D;exitX=0.5;exitY=0.996;exitDx=0;exitDy=0;exitPerimeter=0;entryX=0.5;entryY=0;entryDx=0;entryDy=0;" parent="1" source="Ga-NZqFG59m0xIWUAN_0-2" edge="1">
          <mxGeometry x="22" y="165.5" width="100" height="100" as="geometry">
            <mxPoint x="1251" y="135" as="sourcePoint" />
            <mxPoint x="1241" y="210" as="targetPoint" />
            <Array as="points">
              <mxPoint x="1250" y="170" />
            </Array>
          </mxGeometry>
        </mxCell>
        <mxCell id="KrwQzmzQ28-HR98bMBzi-4" value="&lt;font color=&quot;#0a0a0a&quot;&gt;raw/&lt;/font&gt;" style="text;html=1;align=center;verticalAlign=middle;whiteSpace=wrap;rounded=0;" parent="1" vertex="1">
          <mxGeometry x="1211" y="410" width="60" height="30" as="geometry" />
        </mxCell>
        <mxCell id="KrwQzmzQ28-HR98bMBzi-6" value="&lt;font color=&quot;#0a0a0a&quot;&gt;raw/&lt;/font&gt;" style="text;html=1;align=center;verticalAlign=middle;whiteSpace=wrap;rounded=0;" parent="1" vertex="1">
          <mxGeometry x="1212.39" y="440" width="60" height="30" as="geometry" />
        </mxCell>
        <mxCell id="KrwQzmzQ28-HR98bMBzi-7" value="data&lt;br&gt;/merged" style="shape=cylinder3;whiteSpace=wrap;html=1;boundedLbl=1;backgroundOutline=1;size=15;fillColor=#10739E;" parent="1" vertex="1">
          <mxGeometry x="1379.13" y="390" width="69" height="70" as="geometry" />
        </mxCell>
        <mxCell id="KrwQzmzQ28-HR98bMBzi-8" value="data&lt;br&gt;/raw" style="shape=cylinder3;whiteSpace=wrap;html=1;boundedLbl=1;backgroundOutline=1;size=15;fillColor=#10739E;" parent="1" vertex="1">
          <mxGeometry x="1033.25" y="390" width="69" height="70" as="geometry" />
        </mxCell>
        <mxCell id="KrwQzmzQ28-HR98bMBzi-9" value="data&lt;br&gt;/cleaned" style="shape=cylinder3;whiteSpace=wrap;html=1;boundedLbl=1;backgroundOutline=1;size=15;fillColor=#10739E;" parent="1" vertex="1">
          <mxGeometry x="1206.5" y="390" width="69" height="70" as="geometry" />
        </mxCell>
        <mxCell id="KrwQzmzQ28-HR98bMBzi-10" value="download" style="rounded=1;whiteSpace=wrap;html=1;strokeColor=none;fillColor=#BAC8D3;fontSize=24;fontColor=#23445D;align=center;opacity=60;" parent="1" vertex="1">
          <mxGeometry x="1010" y="210" width="115.5" height="50" as="geometry" />
        </mxCell>
        <mxCell id="KrwQzmzQ28-HR98bMBzi-11" value="merge" style="rounded=1;whiteSpace=wrap;html=1;strokeColor=none;fillColor=#BAC8D3;fontSize=24;fontColor=#23445D;align=center;opacity=60;" parent="1" vertex="1">
          <mxGeometry x="1183" y="210" width="115.5" height="50" as="geometry" />
        </mxCell>
        <mxCell id="KrwQzmzQ28-HR98bMBzi-17" value="streamlit_dashboard.py" style="rounded=1;fillColor=#10739E;strokeColor=none;shadow=1;gradientColor=none;fontStyle=1;fontColor=#FFFFFF;fontSize=12;" parent="1" vertex="1">
          <mxGeometry x="1337.25" y="285" width="152.75" height="25" as="geometry" />
        </mxCell>
        <mxCell id="KrwQzmzQ28-HR98bMBzi-19" value="download_data.py" style="rounded=1;fillColor=#10739E;strokeColor=none;shadow=1;gradientColor=none;fontStyle=1;fontColor=#FFFFFF;fontSize=12;" parent="1" vertex="1">
          <mxGeometry x="991.38" y="285" width="152.75" height="25" as="geometry" />
        </mxCell>
        <mxCell id="KrwQzmzQ28-HR98bMBzi-20" value="merge_all_cleaned.py" style="rounded=1;fillColor=#10739E;strokeColor=none;shadow=1;gradientColor=none;fontStyle=1;fontColor=#FFFFFF;fontSize=12;" parent="1" vertex="1">
          <mxGeometry x="1164" y="285" width="152.75" height="25" as="geometry" />
        </mxCell>
        <mxCell id="KrwQzmzQ28-HR98bMBzi-22" value="" style="edgeStyle=elbowEdgeStyle;elbow=vertical;strokeWidth=4;endArrow=block;endFill=1;fontStyle=1;strokeColor=#23445D;exitX=0.5;exitY=1;exitDx=0;exitDy=0;entryX=0.5;entryY=0;entryDx=0;entryDy=0;" parent="1" source="KrwQzmzQ28-HR98bMBzi-10" target="KrwQzmzQ28-HR98bMBzi-19" edge="1">
          <mxGeometry x="22" y="165.5" width="100" height="100" as="geometry">
            <mxPoint x="1144.13" y="350" as="sourcePoint" />
            <mxPoint x="1144" y="370" as="targetPoint" />
          </mxGeometry>
        </mxCell>
        <mxCell id="KrwQzmzQ28-HR98bMBzi-23" value="" style="edgeStyle=elbowEdgeStyle;elbow=vertical;strokeWidth=4;endArrow=block;endFill=1;fontStyle=1;strokeColor=#23445D;exitX=0.5;exitY=1;exitDx=0;exitDy=0;entryX=0.5;entryY=0;entryDx=0;entryDy=0;" parent="1" source="KrwQzmzQ28-HR98bMBzi-11" target="KrwQzmzQ28-HR98bMBzi-20" edge="1">
          <mxGeometry x="22" y="165.5" width="100" height="100" as="geometry">
            <mxPoint x="1078" y="270" as="sourcePoint" />
            <mxPoint x="1078" y="295" as="targetPoint" />
          </mxGeometry>
        </mxCell>
        <mxCell id="KrwQzmzQ28-HR98bMBzi-24" value="" style="edgeStyle=elbowEdgeStyle;elbow=vertical;strokeWidth=4;endArrow=block;endFill=1;fontStyle=1;strokeColor=#23445D;exitX=0.493;exitY=-0.01;exitDx=0;exitDy=0;entryX=0.5;entryY=1;entryDx=0;entryDy=0;exitPerimeter=0;" parent="1" source="KrwQzmzQ28-HR98bMBzi-17" target="Ga-NZqFG59m0xIWUAN_0-3" edge="1">
          <mxGeometry x="22" y="165.5" width="100" height="100" as="geometry">
            <mxPoint x="1510" y="259.9999999999999" as="sourcePoint" />
            <mxPoint x="1510.4585" y="286.9000000000001" as="targetPoint" />
          </mxGeometry>
        </mxCell>
        <mxCell id="KrwQzmzQ28-HR98bMBzi-25" value="" style="endArrow=classic;html=1;rounded=0;exitX=0.5;exitY=1;exitDx=0;exitDy=0;entryX=0.5;entryY=0;entryDx=0;entryDy=0;entryPerimeter=0;strokeColor=#0A0A0A;" parent="1" source="KrwQzmzQ28-HR98bMBzi-19" target="KrwQzmzQ28-HR98bMBzi-8" edge="1">
          <mxGeometry width="50" height="50" relative="1" as="geometry">
            <mxPoint x="1075.5" y="390" as="sourcePoint" />
            <mxPoint x="1125.5" y="340" as="targetPoint" />
          </mxGeometry>
        </mxCell>
        <mxCell id="KrwQzmzQ28-HR98bMBzi-28" value="&lt;span style=&quot;background-color: rgb(16, 115, 158);&quot;&gt;raw data&lt;/span&gt;" style="edgeLabel;html=1;align=center;verticalAlign=middle;resizable=0;points=[];" parent="KrwQzmzQ28-HR98bMBzi-25" vertex="1" connectable="0">
          <mxGeometry x="0.075" y="-1" relative="1" as="geometry">
            <mxPoint as="offset" />
          </mxGeometry>
        </mxCell>
        <mxCell id="KrwQzmzQ28-HR98bMBzi-26" value="" style="endArrow=classic;html=1;rounded=0;exitX=0.75;exitY=1;exitDx=0;exitDy=0;entryX=0.145;entryY=0;entryDx=0;entryDy=4.35;entryPerimeter=0;strokeColor=#0A0A0A;" parent="1" source="KrwQzmzQ28-HR98bMBzi-19" target="KrwQzmzQ28-HR98bMBzi-9" edge="1">
          <mxGeometry width="50" height="50" relative="1" as="geometry">
            <mxPoint x="1040" y="320" as="sourcePoint" />
            <mxPoint x="1045" y="400" as="targetPoint" />
            <Array as="points">
              <mxPoint x="1106" y="350" />
              <mxPoint x="1217" y="350" />
            </Array>
          </mxGeometry>
        </mxCell>
        <mxCell id="KrwQzmzQ28-HR98bMBzi-27" value="&lt;span style=&quot;background-color: rgb(16, 115, 158);&quot;&gt;cleaned data&lt;/span&gt;" style="edgeLabel;html=1;align=center;verticalAlign=middle;resizable=0;points=[];" parent="KrwQzmzQ28-HR98bMBzi-26" vertex="1" connectable="0">
          <mxGeometry x="0.0124" relative="1" as="geometry">
            <mxPoint x="-1" y="10" as="offset" />
          </mxGeometry>
        </mxCell>
        <mxCell id="KrwQzmzQ28-HR98bMBzi-29" value="" style="endArrow=classic;html=1;rounded=0;entryX=0.501;entryY=1.062;entryDx=0;entryDy=0;entryPerimeter=0;exitX=0.5;exitY=0;exitDx=0;exitDy=0;exitPerimeter=0;strokeColor=#0A0A0A;" parent="1" source="KrwQzmzQ28-HR98bMBzi-9" target="KrwQzmzQ28-HR98bMBzi-20" edge="1">
          <mxGeometry width="50" height="50" relative="1" as="geometry">
            <mxPoint x="1240" y="340" as="sourcePoint" />
            <mxPoint x="1078" y="400" as="targetPoint" />
          </mxGeometry>
        </mxCell>
        <mxCell id="KrwQzmzQ28-HR98bMBzi-30" value="&lt;span style=&quot;background-color: rgb(16, 115, 158);&quot;&gt;cleaned data&lt;/span&gt;" style="edgeLabel;html=1;align=center;verticalAlign=middle;resizable=0;points=[];" parent="KrwQzmzQ28-HR98bMBzi-29" vertex="1" connectable="0">
          <mxGeometry x="0.075" y="-1" relative="1" as="geometry">
            <mxPoint x="1" y="-18" as="offset" />
          </mxGeometry>
        </mxCell>
        <mxCell id="KrwQzmzQ28-HR98bMBzi-31" value="" style="endArrow=classic;html=1;rounded=0;entryX=0;entryY=0.5;entryDx=0;entryDy=0;entryPerimeter=0;exitX=1;exitY=1;exitDx=0;exitDy=0;strokeColor=#0A0A0A;" parent="1" source="KrwQzmzQ28-HR98bMBzi-20" target="KrwQzmzQ28-HR98bMBzi-7" edge="1">
          <mxGeometry width="50" height="50" relative="1" as="geometry">
            <mxPoint x="1310" y="418" as="sourcePoint" />
            <mxPoint x="1310" y="340" as="targetPoint" />
            <Array as="points">
              <mxPoint x="1320" y="425" />
            </Array>
          </mxGeometry>
        </mxCell>
        <mxCell id="KrwQzmzQ28-HR98bMBzi-32" value="&lt;span style=&quot;background-color: rgb(16, 115, 158);&quot;&gt;merged data&lt;/span&gt;" style="edgeLabel;html=1;align=center;verticalAlign=middle;resizable=0;points=[];" parent="KrwQzmzQ28-HR98bMBzi-31" vertex="1" connectable="0">
          <mxGeometry x="0.075" y="-1" relative="1" as="geometry">
            <mxPoint x="1" y="-18" as="offset" />
          </mxGeometry>
        </mxCell>
        <mxCell id="KrwQzmzQ28-HR98bMBzi-35" value="" style="endArrow=classic;html=1;rounded=0;exitX=0.5;exitY=0;exitDx=0;exitDy=0;exitPerimeter=0;entryX=0.5;entryY=1;entryDx=0;entryDy=0;strokeColor=#0A0A0A;" parent="1" source="KrwQzmzQ28-HR98bMBzi-7" target="KrwQzmzQ28-HR98bMBzi-17" edge="1">
          <mxGeometry width="50" height="50" relative="1" as="geometry">
            <mxPoint x="1310" y="350" as="sourcePoint" />
            <mxPoint x="1360" y="300" as="targetPoint" />
          </mxGeometry>
        </mxCell>
        <mxCell id="KrwQzmzQ28-HR98bMBzi-36" value="&lt;span style=&quot;background-color: rgb(16, 115, 158);&quot;&gt;merged data&lt;/span&gt;" style="edgeLabel;html=1;align=center;verticalAlign=middle;resizable=0;points=[];" parent="KrwQzmzQ28-HR98bMBzi-35" vertex="1" connectable="0">
          <mxGeometry x="0.0314" relative="1" as="geometry">
            <mxPoint as="offset" />
          </mxGeometry>
        </mxCell>
        <mxCell id="ZWoC2uR3TbvdJAY8fxQg-1" value="&lt;p style=&quot;line-height: 50%;&quot;&gt;&lt;font style=&quot;&quot;&gt;&lt;font style=&quot;font-size: 14px;&quot;&gt;GENESIS-Online Datenbank&lt;/font&gt;&lt;br&gt;&lt;/font&gt;&lt;/p&gt;" style="rounded=1;whiteSpace=wrap;html=1;strokeColor=none;fillColor=#BAC8D3;fontSize=24;fontColor=#23445D;align=center;opacity=60;" vertex="1" parent="1">
          <mxGeometry x="861" y="103" width="115.5" height="50" as="geometry" />
        </mxCell>
        <mxCell id="ZWoC2uR3TbvdJAY8fxQg-5" value="" style="endArrow=block;startArrow=classic;html=1;rounded=1;dashed=1;strokeColor=#23445D;strokeWidth=4;align=center;verticalAlign=middle;fontFamily=Helvetica;fontSize=11;fontColor=default;fontStyle=1;labelBackgroundColor=default;elbow=vertical;endFill=1;entryX=0.5;entryY=1;entryDx=0;entryDy=0;exitX=0.5;exitY=0;exitDx=0;exitDy=0;" edge="1" parent="1" source="ZWoC2uR3TbvdJAY8fxQg-13" target="ZWoC2uR3TbvdJAY8fxQg-1">
          <mxGeometry width="50" height="50" relative="1" as="geometry">
            <mxPoint x="910" y="210" as="sourcePoint" />
            <mxPoint x="1030" y="510" as="targetPoint" />
          </mxGeometry>
        </mxCell>
        <mxCell id="ZWoC2uR3TbvdJAY8fxQg-6" value="" style="endArrow=block;startArrow=classic;html=1;rounded=1;dashed=1;strokeColor=#23445D;strokeWidth=4;align=center;verticalAlign=middle;fontFamily=Helvetica;fontSize=11;fontColor=default;fontStyle=1;labelBackgroundColor=default;elbow=vertical;endFill=1;entryX=0.5;entryY=1;entryDx=0;entryDy=0;exitX=0;exitY=0.5;exitDx=0;exitDy=0;" edge="1" parent="1" source="KrwQzmzQ28-HR98bMBzi-19" target="ZWoC2uR3TbvdJAY8fxQg-13">
          <mxGeometry width="50" height="50" relative="1" as="geometry">
            <mxPoint x="917.51" y="340" as="sourcePoint" />
            <mxPoint x="910" y="250" as="targetPoint" />
            <Array as="points">
              <mxPoint x="917" y="297" />
            </Array>
          </mxGeometry>
        </mxCell>
        <mxCell id="ZWoC2uR3TbvdJAY8fxQg-13" value="&lt;font style=&quot;font-size: 14px;&quot;&gt;GENESIS API&lt;/font&gt;" style="rounded=1;whiteSpace=wrap;html=1;strokeColor=none;fillColor=#BAC8D3;fontSize=24;fontColor=#23445D;align=center;opacity=60;" vertex="1" parent="1">
          <mxGeometry x="860" y="210" width="115.5" height="50" as="geometry" />
        </mxCell>
        <mxCell id="ZWoC2uR3TbvdJAY8fxQg-16" value="" style="image;aspect=fixed;html=1;points=[];align=center;fontSize=12;image=img/lib/azure2/databases/Cache_Redis.svg;" vertex="1" parent="1">
          <mxGeometry x="892.39" y="60" width="49.23" height="40" as="geometry" />
        </mxCell>
      </root>
    </mxGraphModel>
  </diagram>
</mxfile>
